# xmcd CD database file
#
# Track frame offsets:
#	150
#	28351
#	55102
#	73703
#	91104
#	103013
#	137506
#	161013
#	196188
#	202391
#	221451
#	245902
#
# Disc length: 3682 seconds
#
# Revision: 0
# Processed by: cddbd v1.5.2PL0 Copyright (c) Steve Scherf et al.
# Submitted via: CDex 1.51
#
DISCID=b40e600c
DTITLE=Krzysztof Scieranski - Night Lakes
DYEAR=2014
DGENRE=Jazz
TTITLE0=Petite Fleur
TTITLE1=W niebiesiech
TTITLE2=Night Lakes
TTITLE3=Summer 69
TTITLE4=Telecountry
TTITLE5=Coffee with Salt
TTITLE6=Dedykacja
TTITLE7=Obsession
TTITLE8=Menel Blues
TTITLE9=Blue Jam
TTITLE10=Evora
TTITLE11=O³ów
EXTD=YEAR: 2014
EXTT0=
EXTT1=
EXTT2=
EXTT3=
EXTT4=
EXTT5=
EXTT6=
EXTT7=
EXTT8=
EXTT9=
EXTT10=
EXTT11=
PLAYORDER=
